<?xml version="1.0" encoding="utf-8"?>
<svg version="1.1" baseProfile="tiny" id="Layer_1" x="0px" y="0px" viewBox="0 0 207.4662933 135.6504211" xml:space="preserve">
	<metadata>
		<sfw>
			<slices></slices>
			<sliceSourceBounds bottomLeftOrigin="true" height="135.6504211" width="207.4662933" x="193.9037781" y="-488.7704163">
			</sliceSourceBounds>
		</sfw>
	</metadata>
	<title>icon20</title>
	<path stroke="#000000" stroke-width="4" stroke-linejoin="round" stroke-miterlimit="10" d="M198.7561951,54.6699829
	c-6.7199707-9.6799927-17.7699585-16.3599854-30.3099976-18.3300171c-1.1499634-0.1799927-2.3199463-0.3199463-3.5-0.4199829
	C160.0562439,18.75,144.4762268,5.789978,124.8261948,2.7000122c-2.9099731-0.4500122-5.8599854-0.6799927-8.8099976-0.6900024
	L116.026207,2c-21,0-39.6199951,11.4899902-47.0700073,28.789978c-2.7299805-1.0299683-5.549984-1.7799683-8.4299889-2.2299805
	c-2.2199707-0.3500366-4.460022-0.5300293-6.710022-0.5300293c-7.5999756-0.0299683-15.0599976,2.0500488-21.5599976,6
	c-8.4899902,5.2000122-14.1799927,13-16,22.1100464c-0.7699585,3.75-0.8299561,7.6099854-0.1699829,11.3800049
	C9.1662254,71.5899658,4.2462425,78.3499756,2.5162008,86.1900024c-1.4299927,7.1300049,0.1400146,14.539978,4.3500366,20.4799805
	c5.1599731,7.1500244,13,11.9000244,21.7199707,13.1600342c1.8400269,0.289978,3.710022,0.4400024,5.5700073,0.4400024
	c3.4000244,0.0099487,6.789978-0.4800415,10.0499878-1.4400024c6.2700195,7.1299438,14.8699951,11.789978,24.260006,13.1499634
	c2.2600098,0.3599854,4.539978,0.5400391,6.8200073,0.5400391c8.4299927,0.0199585,16.6799927-2.4700317,23.6900024-7.1500244
	c6.0800171,3.9199829,12.9299927,6.5100098,20.0800171,7.6099854c2.7999878,0.4400024,5.6300049,0.6699829,8.4599609,0.6699829
	c9.5800247,0.0400391,18.9800491-2.5799561,27.1600418-7.5499878c4.6699829-2.8200073,8.7999878-6.4599609,12.1799927-10.7399902
	c6.789978-0.8300171,13.3200073-3.0899658,19.1599731-6.6400146c9.9299927-6.0700073,16.5800171-15.25,18.7399902-25.8200073
	C206.7262268,73.0700073,204.5562439,62.8499756,198.7561951,54.6699829z M199.8462219,81.8999634
	c-1.8800049,9.2000122-7.7199707,17.210022-16.4500122,22.5599976c-5.4599609,3.3100586-11.5800171,5.3600464-17.9299927,6
	c-0.8300171,0.1000366-1.5899658,0.5300293-2.0999756,1.1900024c-3.0800171,4.0800171-6.9100342,7.5300293-11.2800293,10.1800537
	c-7.3999634,4.4899902-15.8900146,6.8499756-24.5499954,6.8099976c-2.5700073,0-5.1400146-0.2000122-7.6900024-0.6100464
	c-6.8900146-1.0299683-13.460022-3.6300049-19.210022-7.5999756c-0.4799805-0.3400269-1.0599976-0.5200195-1.6599731-0.5200195
	c-0.6199951,0-1.2299805,0.2000122-1.7399902,0.5700073c-6.3800049,4.6000366-14.0599976,7.0499878-21.9299927,7
	c-2.0100098,0-4.0100098-0.1599731-6-0.4799805c-8.6300011-1.2299805-16.4800377-5.6600342-21.9999962-12.4199829
	c-0.5599976-0.7000122-1.4100342-1.1100464-2.3099976-1.1200562c-0.3400269,0.0100098-0.6700439,0.0600586-1,0.1700439
	c-3.1500244,1.0799561-6.460022,1.6300049-9.7900391,1.6199951c-1.5999756,0-3.2099609-0.1300049-4.7999878-0.3800049
	c-14.75-2.3200073-24.6099854-14.75-22-27.7200317c1.5599976-6.8899536,6.0800171-12.7399902,12.3499756-16
	c1.1600342-0.5999756,1.7700195-1.9099731,1.5-3.1900024c-0.7999878-3.5599976-0.8399658-7.25-0.1099854-10.8299561
	C22.7162132,49.4400024,27.5962181,42.75,34.8861961,38.289978c5.710022-3.4599609,12.2700195-5.2799683,18.9500122-5.2600098
	C55.8261986,33.039978,57.8062401,33.1900024,59.766201,33.5c3.1700439,0.5,6.260006,1.3999634,9.1899986,2.6900024
	c0.3699951,0.1699829,0.7700195,0.25,1.1700439,0.25c1.2299805,0,2.3199463-0.7700195,2.7399902-1.9199829
	C78.9662094,18.1199951,96.526207,7,116.0462265,7l-0.0200195,0.0100098c2.6799927,0.0100098,5.3599854,0.2199707,8,0.6300049
	c18.6699905,2.9400024,32.6400223,15.5599976,36.4300003,30.9299927c0.3099976,1.2600098,1.4100342,2.1699829,2.7000122,2.2299805
	c1.4899902,0.0900269,3,0.2399902,4.4899902,0.4799805C189.2662048,44.6799927,203.716217,62.8999634,199.8462219,81.8999634z"/>
	<g>
		<path d="M155.5364838,73.8008652c4.3237457-3.2679443,6.8677368-7.2197037,7.6118164-11.8652153
		c0.1609192-0.9753265,0.2413177-1.9707832,0.2413177-3.0065002c0-6.5459633-2.2624207-11.31213-6.7872772-14.2784348
		c-3.8008423-2.5238113-9.1804199-3.77071-16.1486969-3.77071h-1.3148651c-3.3817596,0-6.7390594,0.5618515-9.9282684,1.686657
		c-3.228569,1.1386909-7.0190506,2.7979202-8.9423904,4.8035583c-3.3051758,3.4568176-5.1596756,7.8126945-5.5220718,13.0470467
		c0.0007019,0.0043449,0.0013962,0.0086136,0.0020905,0.0129623l21.3480835,51.7000046V60.8800049h3.4519348
		c2.5700073-0.4298286,4.1900024,0.2402153,4.8499756,1.5801811c0.25,0.4700317,0.3699951,1.0300293,0.3699951,1.6700478
		c0,2.6499634-5.6719055,3.9799805-5.6719055,3.9799805v18.7697906h4.0227509c3.4950409,0,5.2475586,1.1350937,5.2475586,3.3954391
		c0,1.3442154-0.4281616,2.2802124-1.2844849,2.8079834c-0.8563843,0.537674-2.3400116,0.7965775-4.4310455,0.7965775h-3.5547791v18
		h4.0019531c4.2332764,0,7.6017456-0.3620377,10.0954895-1.0960464c2.4936829-0.7239456,4.8365631-2.0110474,7.0185242-3.8411026
		c4.4745941-3.8511734,6.7168884-9.0195084,6.7168884-15.5051422
		C166.9290771,82.9812317,163.1281738,77.0989532,155.5364838,73.8008652z"/>
		<path d="M108.1886749,47.6229401c-3.2716751-3.8665619-7.9710541-5.7998428-14.1078873-5.7998428
		c-3.8764877,0-7.1283112,0.7336998-9.7556,2.220829c-2.6371536,1.487133-5.1058426,3.965683-7.4158096,7.4356537
		c-3.7674408-6.4442329-9.1508484-9.6564827-16.1601944-9.6564827c-5.9088249,0-10.707325,1.9332809-14.415226,5.7998428
		c-3.697979,3.8665009-5.5519295,8.8533745-5.5519295,14.960495l20.3141899,49.2438812V67.4874802
		c0-3.9462738,1.0860291-5.9139633,3.2580223-5.9139633c1.1613007,0,2.7419739-0.1183281,2.7419739,6.7204056
		c0,0.1612549,0.0101624,0.4138565,0.0101624,2.333168c2.8687439-2.4093246,6.6869888-3.6037674,11.4750443-3.6037674
		c3.971283,0,7.1361313,0.8064957,9.5147934,2.4093246v-1.3724213c0,0,0.4619446-6.2500038,2.4819031-6.2500038
		c1.0700073,0,2.5180969,5.3699989,2.5180969,5.3699989v0.6659698l20,43.7480698V64.3382721
		C113.0962143,57.0612183,111.46035,51.4894409,108.1886749,47.6229401z"/>
		<path d="M89.3741455,72.3699951c-2.4711609-2.6599731-6.2957382-3.9799805-11.4635468-3.9799805
		c-5.3626862,0-9.5256577,1.4599609-12.4889069,4.3899536c-2.871067,2.8500366-4.3577919,6.8100586-4.4295769,11.8900146
		c0,0-0.0102615,0.0100098,0,0.0200195l13.1040993,27.7700195v-10.5800171h3.9991455v-11h-3.9991455v-5.3599854
		c0-2.9800415,1.0253677-4.4700317,3.076088-4.4700317c1.0458908,0,1.7841263,0.3300171,2.1942978,0.9799805
		c0.2871323,0.460022,0.4818878,1.1800537,0.5639343,2.1500244c0.0102615,0.1400146,0.0205231,0.289978,0.0205231,0.4400024
		l13.1451569,27.8300171V84.1799927C93.024437,78.8900146,91.7837219,74.9500122,89.3741455,72.3699951z"/>
	</g>
</svg>
